<svg xmlns="http://www.w3.org/2000/svg" viewBox="0 0 120 120">
  <title>IAB Workshop icon</title>
  <g transform="translate(0,-1.5)">
    <circle cx="42" cy="68" r="10" fill="#1b2040"/>
    <path d="M26 97 a16 14 0 0 1 32 0 z" fill="#1b2040"/>
    <path d="M73 66 h14 a7 7 0 0 1 7 7 v9 a7 7 0 0 1 -7 7 h-14 a7 7 0 0 1 -7 -7 v-9 a7 7 0 0 1 7 -7 Z M75 74.2 a2.8 2.8 0 1 0 0 5.6 a2.8 2.8 0 1 0 0 -5.6 Z M85 74.2 a2.8 2.8 0 1 0 0 5.6 a2.8 2.8 0 1 0 0 -5.6 Z" fill="#1b2040" fill-rule="evenodd"/>
    <rect x="71" y="92" width="18" height="8" rx="3" fill="#1b2040"/>
    <line x1="60" y1="56" x2="60" y2="46" stroke="#1b2040" stroke-width="3" stroke-linecap="round"/>
    <line x1="60" y1="46" x2="44" y2="35" stroke="#e0533d" stroke-width="3" stroke-linecap="round"/>
    <line x1="60" y1="46" x2="53" y2="30" stroke="#f5a623" stroke-width="3" stroke-linecap="round"/>
    <line x1="60" y1="46" x2="60" y2="27" stroke="#3ba55c" stroke-width="3" stroke-linecap="round"/>
    <line x1="60" y1="46" x2="67" y2="30" stroke="#4a7fe8" stroke-width="3" stroke-linecap="round"/>
    <line x1="60" y1="46" x2="76" y2="35" stroke="#8a5cc7" stroke-width="3" stroke-linecap="round"/>
    <circle cx="44" cy="35" r="3.6" fill="#e0533d"/>
    <circle cx="53" cy="30" r="3.6" fill="#f5a623"/>
    <circle cx="60" cy="27" r="3.6" fill="#3ba55c"/>
    <circle cx="67" cy="30" r="3.6" fill="#4a7fe8"/>
    <circle cx="76" cy="35" r="3.6" fill="#8a5cc7"/>
  </g>
</svg>
